<svg xmlns="http://www.w3.org/2000/svg" width="33" height="32" viewBox="0 0 33 32" fill="none">
<rect width="32" height="32" transform="translate(0.324219)" fill="white"/>
<path d="M13.3242 31C13.8765 31 14.3242 30.5523 14.3242 30C14.3242 29.4477 13.8765 29 13.3242 29C12.7719 29 12.3242 29.4477 12.3242 30C12.3242 30.5523 12.7719 31 13.3242 31Z" stroke="#8DED64" stroke-width="2" stroke-linecap="round" stroke-linejoin="round"/>
<path d="M25.3242 31C25.8765 31 26.3242 30.5523 26.3242 30C26.3242 29.4477 25.8765 29 25.3242 29C24.7719 29 24.3242 29.4477 24.3242 30C24.3242 30.5523 24.7719 31 25.3242 31Z" stroke="#8DED64" stroke-width="2" stroke-linecap="round" stroke-linejoin="round"/>
<path d="M3.32422 4H8.05149L11.2188 20.9603C11.3268 21.5434 11.6228 22.0672 12.055 22.4401C12.4871 22.8129 13.0278 23.0109 13.5824 22.9995H25.0697C25.6243 23.0109 26.165 22.8129 26.5971 22.4401C27.0292 22.0672 27.3252 21.5434 27.4333 20.9603L29.3242 10.3332H9.23331" stroke="#8DED64" stroke-width="2" stroke-linecap="round" stroke-linejoin="round"/>
</svg>