<svg width="39" height="30" viewBox="0 0 39 30" fill="none" xmlns="http://www.w3.org/2000/svg">
<path d="M34.9405 3.38894C34.0419 2.63158 32.9749 2.03078 31.8006 1.62088C30.6263 1.21098 29.3677 1 28.0965 1C26.8254 1 25.5668 1.21098 24.3924 1.62088C23.2181 2.03078 22.1512 2.63158 21.2526 3.38894L19.3877 4.96001L17.5227 3.38894C15.7076 1.85984 13.2458 1.00079 10.6788 1.00079C8.11182 1.00079 5.64998 1.85984 3.83485 3.38894C2.01973 4.91805 1 6.99197 1 9.15445C1 11.3169 2.01973 13.3909 3.83485 14.92L5.69978 16.491L19.3877 28.022L33.0756 16.491L34.9405 14.92C35.8395 14.163 36.5527 13.2641 37.0393 12.2749C37.5258 11.2856 37.7763 10.2253 37.7763 9.15445C37.7763 8.08363 37.5258 7.0233 37.0393 6.03403C36.5527 5.04477 35.8395 4.14595 34.9405 3.38894V3.38894Z" stroke="#DEDBDB" stroke-width="2" stroke-linecap="round" stroke-linejoin="round"/>
</svg>
