<svg width="34" height="33" viewBox="0 0 34 33" fill="none" xmlns="http://www.w3.org/2000/svg">
<g clip-path="url(#clip0_310_1322)">
<path d="M13.9198 31.8263C14.4925 31.8263 14.9568 31.3799 14.9568 30.8291C14.9568 30.2784 14.4925 29.8319 13.9198 29.8319C13.3471 29.8319 12.8828 30.2784 12.8828 30.8291C12.8828 31.3799 13.3471 31.8263 13.9198 31.8263Z" stroke="white" stroke-width="2" stroke-linecap="round" stroke-linejoin="round"/>
<path d="M26.3632 31.8263C26.9359 31.8263 27.4001 31.3799 27.4001 30.8291C27.4001 30.2784 26.9359 29.8319 26.3632 29.8319C25.7904 29.8319 25.3262 30.2784 25.3262 30.8291C25.3262 31.3799 25.7904 31.8263 26.3632 31.8263Z" stroke="white" stroke-width="2" stroke-linecap="round" stroke-linejoin="round"/>
<path d="M3.55078 4.90196H8.45287L11.7373 21.8147C11.8493 22.3962 12.1563 22.9186 12.6044 23.2904C13.0525 23.6621 13.6132 23.8596 14.1883 23.8483H26.1004C26.6755 23.8596 27.2362 23.6621 27.6843 23.2904C28.1324 22.9186 28.4393 22.3962 28.5514 21.8147L30.5123 11.2174H9.67839" stroke="white" stroke-width="2" stroke-linecap="round" stroke-linejoin="round"/>
</g>
<defs>
<clipPath id="clip0_310_1322">
<rect width="33.1833" height="31.9104" fill="white" transform="translate(0.439453 0.913162)"/>
</clipPath>
</defs>
</svg>
