<svg width="50" height="47" viewBox="0 0 50 47" fill="none" xmlns="http://www.w3.org/2000/svg">
<rect y="0.00561523" width="49.2264" height="46.8683" rx="23.4342" fill="white"/>
<path d="M24.6133 13.8403C27.8752 13.8403 28.3201 13.8403 29.6545 13.8403C30.8407 13.8403 31.4338 14.1226 31.8786 14.2638C32.4717 14.5461 32.9165 14.6873 33.3613 15.1108C33.8061 15.5343 34.1027 15.9578 34.251 16.5225C34.3992 16.946 34.5475 17.5107 34.6958 18.64C34.6958 19.9106 34.6958 20.1929 34.6958 23.4398C34.6958 26.6867 34.6958 26.969 34.6958 28.2396C34.6958 29.3689 34.3992 29.9336 34.251 30.3571C33.9544 30.9218 33.8061 31.3453 33.3613 31.7688C32.9165 32.1923 32.4717 32.4747 31.8786 32.6158C31.4338 32.757 30.8407 32.8982 29.6545 33.0393C28.3201 33.0393 28.0235 33.0393 24.6133 33.0393C21.203 33.0393 20.9064 33.0393 19.572 33.0393C18.3858 33.0393 17.7927 32.757 17.3479 32.6158C16.7548 32.3335 16.31 32.1923 15.8652 31.7688C15.4204 31.3453 15.1238 30.9218 14.9755 30.3571C14.8273 29.9336 14.679 29.3689 14.5307 28.2396C14.5307 26.969 14.5307 26.6867 14.5307 23.4398C14.5307 20.1929 14.5307 19.9106 14.5307 18.64C14.5307 17.5107 14.8273 16.946 14.9755 16.5225C15.2721 15.9578 15.4204 15.5343 15.8652 15.1108C16.31 14.6873 16.7548 14.4049 17.3479 14.2638C17.7927 14.1226 18.3858 13.9814 19.572 13.8403C20.9064 13.8403 21.3513 13.8403 24.6133 13.8403ZM24.6133 11.7227C21.203 11.7227 20.9064 11.7227 19.572 11.7227C18.2375 11.7227 17.3479 12.0051 16.6065 12.2874C15.8652 12.5697 15.1238 12.9932 14.3825 13.6991C13.6411 14.4049 13.3445 14.9696 12.8997 15.8166C12.6032 16.5225 12.4549 17.3695 12.3066 18.64C12.3066 19.9106 12.3066 20.3341 12.3066 23.4398C12.3066 26.6867 12.3066 26.969 12.3066 28.2396C12.3066 29.5101 12.6032 30.3571 12.8997 31.063C13.1963 31.7688 13.6411 32.4747 14.3825 33.1805C15.1238 33.8864 15.7169 34.1687 16.6065 34.5922C17.3479 34.8746 18.2375 35.0157 19.572 35.1569C20.9064 35.1569 21.3513 35.1569 24.6133 35.1569C27.8752 35.1569 28.3201 35.1569 29.6545 35.1569C30.989 35.1569 31.8786 34.8746 32.62 34.5922C33.3613 34.3099 34.1027 33.8864 34.844 33.1805C35.5854 32.4747 35.882 31.91 36.3268 31.063C36.6233 30.3571 36.7716 29.5101 36.9199 28.2396C36.9199 26.969 36.9199 26.5455 36.9199 23.4398C36.9199 20.3341 36.9199 19.9106 36.9199 18.64C36.9199 17.3695 36.6233 16.5225 36.3268 15.8166C36.0302 15.1108 35.5854 14.4049 34.844 13.6991C34.1027 12.9932 33.5096 12.7109 32.62 12.2874C31.8786 12.0051 30.989 11.8639 29.6545 11.7227C28.3201 11.7227 28.0235 11.7227 24.6133 11.7227Z" fill="black"/>
<path d="M24.6133 17.3695C21.0547 17.3695 18.2375 20.0517 18.2375 23.4398C18.2375 26.8279 21.0547 29.5101 24.6133 29.5101C28.1718 29.5101 30.989 26.8279 30.989 23.4398C30.989 20.0517 28.1718 17.3695 24.6133 17.3695ZM24.6133 27.3926C22.3892 27.3926 20.4616 25.6985 20.4616 23.4398C20.4616 21.3223 22.2409 19.4871 24.6133 19.4871C26.8373 19.4871 28.7649 21.1811 28.7649 23.4398C28.7649 25.5573 26.8373 27.3926 24.6133 27.3926Z" fill="black"/>
<path d="M31.1372 18.64C31.9561 18.64 32.62 18.008 32.62 17.2283C32.62 16.4487 31.9561 15.8166 31.1372 15.8166C30.3184 15.8166 29.6545 16.4487 29.6545 17.2283C29.6545 18.008 30.3184 18.64 31.1372 18.64Z" fill="black"/>
</svg>
