<svg width="50" height="44" viewBox="0 0 50 44" fill="none" xmlns="http://www.w3.org/2000/svg">
<rect y="0.821411" width="49.4792" height="42.4107" rx="5" fill="#DCDCDC"/>
<path d="M38.1311 12.2515C37.3574 11.5858 36.4387 11.0578 35.4275 10.6975C34.4164 10.3372 33.3326 10.1518 32.2381 10.1518C31.1435 10.1518 30.0598 10.3372 29.0486 10.6975C28.0375 11.0578 27.1188 11.5858 26.345 12.2515L24.7392 13.6323L23.1334 12.2515C21.5704 10.9075 19.4506 10.1525 17.2403 10.1525C15.03 10.1525 12.9102 10.9075 11.3472 12.2515C9.7843 13.5954 8.90625 15.4182 8.90625 17.3188C8.90625 19.2195 9.7843 21.0423 11.3472 22.3862L12.9531 23.767L24.7392 33.9018L36.5253 23.767L38.1311 22.3862C38.9052 21.7209 39.5193 20.9309 39.9383 20.0614C40.3573 19.1919 40.5729 18.26 40.5729 17.3188C40.5729 16.3777 40.3573 15.4457 39.9383 14.5763C39.5193 13.7068 38.9052 12.9168 38.1311 12.2515V12.2515Z" stroke="black" stroke-width="2" stroke-linecap="round" stroke-linejoin="round"/>
</svg>
